<svg id="Client_Logo" data-name="Client Logo" xmlns="http://www.w3.org/2000/svg" width="927" height="102" viewBox="0 0 927 102">
  <g id="Group" transform="translate(0 1)">
    <g id="logo_1" data-name="logo 1">
      <path id="Clip" d="M0,0H162V100H0Z" fill="none"/>
      <path id="Combined_Shape" data-name="Combined Shape" d="M18.411,57.922a30.246,30.246,0,1,1,11.733,2.369A30.029,30.029,0,0,1,18.411,57.922Zm13.5-38.016a8.469,8.469,0,1,0,8.469-8.469A8.478,8.478,0,0,0,31.916,19.906ZM122.807,46.77a2.1,2.1,0,0,1-1.045-1.908A2.3,2.3,0,0,1,122.807,43a3.708,3.708,0,0,1-.555-.307,2.984,2.984,0,0,1-.41-.338V41.98l1.4-1.481a2.7,2.7,0,0,1-.933-2.109,2.782,2.782,0,0,1,1.514-2.512,3.69,3.69,0,0,1,1.755-.387,4,4,0,0,1,1.256.193h3.028v1.256l-1.369.1a2.993,2.993,0,0,1-.064,2.818,2.755,2.755,0,0,1-1.121,1.047,3.667,3.667,0,0,1-1.73.387,4.389,4.389,0,0,1-1.079-.129l-.6.6a2.915,2.915,0,0,0,.741.24,14.962,14.962,0,0,0,1.514.193,4.2,4.2,0,0,1,2.318.758,2.1,2.1,0,0,1,.725,1.69,2.557,2.557,0,0,1-.387,1.345,2.775,2.775,0,0,1-1.191,1.03,4.723,4.723,0,0,1-2.061.394A5.292,5.292,0,0,1,122.807,46.77Zm1.04-2.746a1.129,1.129,0,0,0-.2.629.964.964,0,0,0,.555.893,2.866,2.866,0,0,0,1.361.3,2.278,2.278,0,0,0,1.256-.315.969.969,0,0,0,.482-.846.943.943,0,0,0-.314-.724,2.136,2.136,0,0,0-1.247-.354c-.456-.035-.857-.082-1.224-.144A1.845,1.845,0,0,0,123.846,44.024Zm.668-6.586a1.363,1.363,0,0,0,0,1.934,1.611,1.611,0,0,0,1.063.338,1.59,1.59,0,0,0,1.039-.338,1.345,1.345,0,0,0,0-1.934,1.588,1.588,0,0,0-1.039-.337A1.609,1.609,0,0,0,124.514,37.438Zm8.269,5.894a3.908,3.908,0,0,1-1.466-1.474,4.653,4.653,0,0,1,.008-4.363,3.972,3.972,0,0,1,1.472-1.472,4.33,4.33,0,0,1,4.155,0,3.9,3.9,0,0,1,1.464,1.472,4.677,4.677,0,0,1,0,4.363,3.893,3.893,0,0,1-1.472,1.474,4.336,4.336,0,0,1-4.162,0Zm.692-5.45a3.03,3.03,0,0,0,0,3.589,1.881,1.881,0,0,0,1.392.606,1.905,1.905,0,0,0,1.4-.606,3,3,0,0,0,0-3.589,1.918,1.918,0,0,0-2.793,0Zm-18.789,5.45a3.908,3.908,0,0,1-1.466-1.474,4.653,4.653,0,0,1,.008-4.363,3.965,3.965,0,0,1,1.472-1.472,4.33,4.33,0,0,1,4.155,0,3.905,3.905,0,0,1,1.464,1.472,4.677,4.677,0,0,1,0,4.363,3.9,3.9,0,0,1-1.472,1.474,4.336,4.336,0,0,1-4.162,0Zm.692-5.45a3.03,3.03,0,0,0,0,3.589,1.879,1.879,0,0,0,1.392.606,1.907,1.907,0,0,0,1.4-.606,3,3,0,0,0,0-3.589,1.918,1.918,0,0,0-2.793,0ZM77.436,43.348A3.748,3.748,0,0,1,75.971,41.9a4.308,4.308,0,0,1-.531-2.158,4.578,4.578,0,0,1,.523-2.206,3.8,3.8,0,0,1,1.45-1.5,4.276,4.276,0,0,1,2.182-.539,4.128,4.128,0,0,1,2.076.515,3.727,3.727,0,0,1,1.409,1.409,3.985,3.985,0,0,1,.508,1.989c0,.118,0,.243-.008.371s-.013.257-.023.4h-6.07a2.082,2.082,0,0,0,.652,1.464,2.055,2.055,0,0,0,1.425.531,1.9,1.9,0,0,0,1.055-.281,1.764,1.764,0,0,0,.635-.733h2.093a3.812,3.812,0,0,1-.748,1.377,3.712,3.712,0,0,1-1.288.973,4.109,4.109,0,0,1-1.731.355A4.377,4.377,0,0,1,77.436,43.348Zm.821-5.756a1.978,1.978,0,0,0-.74,1.3h3.977a1.76,1.76,0,0,0-.58-1.255,1.94,1.94,0,0,0-1.319-.467A2.207,2.207,0,0,0,78.257,37.592Zm26.212,6.079V32.4h2.062V42.06h4.991v1.611Zm-7.1,0a3.1,3.1,0,0,1-2.013-.613,2.657,2.657,0,0,1-.756-2.172V37.407H93.23V35.685H94.6l.242-2.143H96.66v2.143h2.157v1.722H96.66V40.9a1.018,1.018,0,0,0,.25.8,1.317,1.317,0,0,0,.86.217h1v1.756Zm-7.1,0-2.013-2.834-2.028,2.834H84.021l2.9-3.994-2.9-3.992h2.206l2.028,2.833,2.013-2.833H92.49l-2.914,3.992,2.914,3.994Zm-19.966,0V34.058H67.018V32.4h8.647v1.659h-3.3v9.613Zm64.339-15.779,1.852-4.074h-.483L132.9,16.363h2.238l2.238,5.62,2.335-5.62h2.19l-5.072,11.529Zm-28.241,0h-2.06V16.363h1.835l.226,1.143a3.705,3.705,0,0,1,1.022-.933,3.056,3.056,0,0,1,1.651-.4,3.762,3.762,0,0,1,2.012.547,3.943,3.943,0,0,1,1.4,1.5A4.491,4.491,0,0,1,113,20.372a4.44,4.44,0,0,1-.515,2.149,3.912,3.912,0,0,1-1.4,1.481,3.822,3.822,0,0,1-2.012.539A3.5,3.5,0,0,1,107.5,24.2a2.854,2.854,0,0,1-1.094-.95V27.89h0Zm.6-9.249a2.632,2.632,0,0,0,0,3.43,2.334,2.334,0,0,0,3.261.008,2.349,2.349,0,0,0,.645-1.707,2.407,2.407,0,0,0-.645-1.723A2.313,2.313,0,0,0,107,18.642ZM69.852,23.809a4.882,4.882,0,0,1-1.884-2.045,6.664,6.664,0,0,1-.661-3.035,6.715,6.715,0,0,1,.661-3.043,4.924,4.924,0,0,1,1.884-2.061,5.557,5.557,0,0,1,2.93-.741,5.26,5.26,0,0,1,3.324,1.006,4.393,4.393,0,0,1,1.62,2.826h-2.27a2.425,2.425,0,0,0-.9-1.441,2.9,2.9,0,0,0-1.811-.524A3.01,3.01,0,0,0,70.3,15.816a4.416,4.416,0,0,0-.886,2.914,4.384,4.384,0,0,0,.886,2.907,3.451,3.451,0,0,0,4.258.563,2.266,2.266,0,0,0,.9-1.361h2.27a4.235,4.235,0,0,1-1.62,2.721,5.345,5.345,0,0,1-3.324.984A5.6,5.6,0,0,1,69.852,23.809Zm46.049.4a2.3,2.3,0,0,1-.983-.878,2.356,2.356,0,0,1-.322-1.208,2.206,2.206,0,0,1,.87-1.8,4.153,4.153,0,0,1,2.609-.692H120.1v-.194a1.483,1.483,0,0,0-.467-1.208,1.765,1.765,0,0,0-1.159-.386,1.991,1.991,0,0,0-1.094.3,1.288,1.288,0,0,0-.58.878h-2.013a2.817,2.817,0,0,1,.589-1.513,3.3,3.3,0,0,1,1.313-.99,4.525,4.525,0,0,1,1.8-.347,3.986,3.986,0,0,1,2.689.853,3.046,3.046,0,0,1,.982,2.416V24.35h-1.755l-.193-1.289a2.984,2.984,0,0,1-.99,1.063,2.935,2.935,0,0,1-1.634.419A3.8,3.8,0,0,1,115.9,24.213Zm1.223-3a.924.924,0,0,0-.354.733.848.848,0,0,0,.354.725,1.562,1.562,0,0,0,.934.257,1.717,1.717,0,0,0,1.377-.58,2.827,2.827,0,0,0,.62-1.433H118.3A1.845,1.845,0,0,0,117.124,21.218ZM81.245,24.011a3.912,3.912,0,0,1-1.466-1.473,4.324,4.324,0,0,1-.539-2.182,4.274,4.274,0,0,1,.547-2.181A3.967,3.967,0,0,1,81.259,16.7a4.324,4.324,0,0,1,4.155,0,3.914,3.914,0,0,1,1.464,1.473,4.677,4.677,0,0,1,0,4.363,3.9,3.9,0,0,1-1.472,1.473,4.342,4.342,0,0,1-4.162,0Zm.692-5.45a2.481,2.481,0,0,0-.589,1.795,2.486,2.486,0,0,0,.589,1.8,1.886,1.886,0,0,0,1.392.6,1.914,1.914,0,0,0,1.4-.6,2.473,2.473,0,0,0,.6-1.8,2.467,2.467,0,0,0-.6-1.795,1.916,1.916,0,0,0-2.793,0Zm47.955,5.789V20.034a2.564,2.564,0,0,0-.417-1.578,1.538,1.538,0,0,0-1.3-.547,1.841,1.841,0,0,0-1.425.611,2.451,2.451,0,0,0-.556,1.707V24.35h-2.06V16.363h1.819l.161,1.352a2.808,2.808,0,0,1,1.071-1.127,3.152,3.152,0,0,1,1.65-.418,2.908,2.908,0,0,1,2.3.932,4.036,4.036,0,0,1,.821,2.739V24.35Zm-29.576,0V20.034a2.676,2.676,0,0,0-.4-1.578,1.4,1.4,0,0,0-1.216-.547,1.658,1.658,0,0,0-1.345.612,2.6,2.6,0,0,0-.507,1.705v4.122H94.792V20.034a2.628,2.628,0,0,0-.4-1.578,1.437,1.437,0,0,0-1.239-.547,1.641,1.641,0,0,0-1.328.612,2.6,2.6,0,0,0-.508,1.705v4.122H89.253V16.363h1.821l.175,1.079a2.845,2.845,0,0,1,1.023-.926,3.028,3.028,0,0,1,1.473-.346A2.734,2.734,0,0,1,96.369,17.6a3.117,3.117,0,0,1,1.168-1.048,3.381,3.381,0,0,1,1.6-.385,3.055,3.055,0,0,1,2.4.933,3.977,3.977,0,0,1,.837,2.737v4.508Z" transform="translate(10 20)" fill="#b6b9bd"/>
    </g>
    <g id="logo_2" data-name="logo 2" transform="translate(192)">
      <path id="Clip-2" data-name="Clip" d="M0,0H162V100H0Z" fill="none"/>
      <path id="Combined_Shape-2" data-name="Combined Shape" d="M0,43.1,21.892,21.209,43.782,43.1,21.892,64.992Zm74.755,2.129a1.265,1.265,0,0,1-.476-.5,1.664,1.664,0,0,1,0-1.47,1.259,1.259,0,0,1,.476-.5,1.492,1.492,0,0,1,1.418,0,1.234,1.234,0,0,1,.473.5,1.672,1.672,0,0,1,0,1.47,1.239,1.239,0,0,1-.473.5,1.485,1.485,0,0,1-1.418,0Zm.217-2.147a.829.829,0,0,0-.325.359,1.251,1.251,0,0,0-.114.556,1.27,1.27,0,0,0,.114.558.84.84,0,0,0,.325.357.955.955,0,0,0,.492.125.935.935,0,0,0,.489-.125.863.863,0,0,0,.325-.357A1.245,1.245,0,0,0,76.395,44a1.226,1.226,0,0,0-.117-.556.846.846,0,0,0-.325-.359.934.934,0,0,0-.489-.125A.951.951,0,0,0,74.972,43.082ZM59.188,45.229a1.265,1.265,0,0,1-.476-.5,1.664,1.664,0,0,1,0-1.47,1.259,1.259,0,0,1,.476-.5,1.492,1.492,0,0,1,1.417,0,1.234,1.234,0,0,1,.473.5,1.672,1.672,0,0,1,0,1.47,1.239,1.239,0,0,1-.473.5,1.485,1.485,0,0,1-1.417,0Zm.217-2.147a.823.823,0,0,0-.325.359,1.251,1.251,0,0,0-.114.556,1.27,1.27,0,0,0,.114.558.834.834,0,0,0,.325.357.953.953,0,0,0,.492.125.935.935,0,0,0,.489-.125.863.863,0,0,0,.325-.357A1.245,1.245,0,0,0,60.827,44a1.226,1.226,0,0,0-.117-.556.846.846,0,0,0-.325-.359.934.934,0,0,0-.489-.125A.951.951,0,0,0,59.4,43.082Zm43.6,2.15a1.191,1.191,0,0,1-.447-.49,1.619,1.619,0,0,1-.159-.737,1.6,1.6,0,0,1,.163-.737,1.228,1.228,0,0,1,.466-.5,1.37,1.37,0,0,1,.715-.18,1.3,1.3,0,0,1,.779.225,1.038,1.038,0,0,1,.4.625h-.467a.6.6,0,0,0-.246-.342.81.81,0,0,0-.472-.125.857.857,0,0,0-.674.275,1.316,1.316,0,0,0,0,1.524.814.814,0,0,0,.643.274.774.774,0,0,0,.61-.231,1.033,1.033,0,0,0,.239-.611h-.74v-.319h1.157v1.48h-.378l-.035-.4a.98.98,0,0,1-.343.331,1.089,1.089,0,0,1-.538.117A1.276,1.276,0,0,1,103,45.232Zm-31.861,0a1.183,1.183,0,0,1-.454-.494,1.783,1.783,0,0,1,0-1.473,1.2,1.2,0,0,1,.454-.5,1.313,1.313,0,0,1,.7-.179,1.25,1.25,0,0,1,.783.233,1.038,1.038,0,0,1,.386.656h-.459a.636.636,0,0,0-.235-.378.749.749,0,0,0-.479-.141.806.806,0,0,0-.646.278,1.145,1.145,0,0,0-.238.766,1.13,1.13,0,0,0,.238.761.811.811,0,0,0,.646.276.787.787,0,0,0,.479-.132.61.61,0,0,0,.235-.363h.459a1.013,1.013,0,0,1-.386.635,1.26,1.26,0,0,1-.783.229A1.321,1.321,0,0,1,71.141,45.23Zm-8.2.062a.858.858,0,0,1-.374-.352,1.183,1.183,0,0,1-.139-.6v-1.7h.413v1.707a.709.709,0,0,0,.172.525.631.631,0,0,0,.464.168.623.623,0,0,0,.46-.168.705.705,0,0,0,.171-.525V42.634h.413v1.7a1.156,1.156,0,0,1-.142.6.881.881,0,0,1-.382.352,1.2,1.2,0,0,1-.528.115A1.179,1.179,0,0,1,62.941,45.292Zm3.263.07-.411,0V42.634h.939a1.18,1.18,0,0,1,.534.108.742.742,0,0,1,.309.3.865.865,0,0,1-.033.871.732.732,0,0,1-.419.3l.58,1.156h-.478l-.531-1.1H66.2v1.1Zm0-1.413h.5a.545.545,0,0,0,.41-.136.494.494,0,0,0,.131-.354.484.484,0,0,0-.129-.349.563.563,0,0,0-.418-.131h-.5Zm59.547,1.412h-.412V42.634h.939a1.169,1.169,0,0,1,.534.108.732.732,0,0,1,.309.3.865.865,0,0,1-.033.871.736.736,0,0,1-.419.3l.58,1.156-.478,0-.531-1.1h-.487v1.1h0Zm0-1.412h.5a.549.549,0,0,0,.41-.136.491.491,0,0,0,.131-.354.479.479,0,0,0-.129-.349.563.563,0,0,0-.418-.131h-.5Zm-5.085,1.412v-1.22h-1.321v1.22h-.413V42.633h.413V43.8h1.321V42.633h.413v2.729Zm-11.617,0V42.634h.413v2.728Zm-2.837,0V42.634h.413v2.4h1.238v.328Zm-7.142,0,1.005-2.727h.452l1,2.726h-.437l-.234-.666H99.741l-.234.666h-.436Zm.787-.994h.881l-.441-1.242Zm-2.657.994V42.969h-.807v-.335h2.022v.335h-.8v2.393Zm-7.156,0-1.368-2.054v2.054h-.413V42.634h.413l1.368,2.054V42.634h.413v2.728Zm-5.357,0,1.005-2.727h.452l1,2.726h-.437l-.234-.666H85.358l-.234.666h-.436Zm.787-.994h.881l-.441-1.242Zm42.974.994V42.633h1.733v.335h-1.321v.851h1.2v.327h-1.2v.881h1.321v.335Zm-6.076,0V42.633h1.734v.335h-1.321v.851h1.2v.327h-1.2v.881h1.321v.335Zm-8.129,0V42.633h1.734v.335h-1.321v.851h1.2v.327h-1.2v.881h1.321v.335Zm-1.705,0-1.368-2.054v2.054h-.413V42.633h.413l1.368,2.054V42.633h.412v2.728Zm-20.092,0V44.356l-.9-1.722h.467l.643,1.317.641-1.317h.463l-.9,1.722v1.005Zm-9.907,0h-.412V42.634h.955a1.183,1.183,0,0,1,.53.106.733.733,0,0,1,.313.292.857.857,0,0,1,.1.419.826.826,0,0,1-.1.407.7.7,0,0,1-.309.294,1.174,1.174,0,0,1-.538.11h-.542v1.1h0Zm0-1.437h.522a.573.573,0,0,0,.418-.127.468.468,0,0,0,.128-.345.476.476,0,0,0-.128-.352.565.565,0,0,0-.418-.127h-.522Zm-2.12,1.437V43.347l-.834,1.625h-.319l-.839-1.621v2.011h-.412V42.634H78.5l.923,1.815.921-1.815h.486v2.727Zm-23.992,0V44.356l-.9-1.722h.467l.643,1.317.64-1.317h.463l-.9,1.722v1.005Zm11.9-6.841a3.975,3.975,0,0,1-1.522-2.093,9.888,9.888,0,0,1-.439-3.078V25.361a9.134,9.134,0,0,1,.463-3.056A3.924,3.924,0,0,1,68.378,20.3a6.45,6.45,0,0,1,5.895,0,3.866,3.866,0,0,1,1.534,2.009,9.344,9.344,0,0,1,.453,3.056v8.011a9.711,9.711,0,0,1-.441,3.055,4.063,4.063,0,0,1-1.51,2.081,5.072,5.072,0,0,1-2.971.761A5.254,5.254,0,0,1,68.331,38.52Zm1.046-17a2.466,2.466,0,0,0-.927,1.391,8.047,8.047,0,0,0-.25,2.116v8.725a8.164,8.164,0,0,0,.25,2.128,2.589,2.589,0,0,0,.927,1.426,3.229,3.229,0,0,0,1.961.51,3.124,3.124,0,0,0,1.925-.51,2.616,2.616,0,0,0,.916-1.426,8.147,8.147,0,0,0,.249-2.128V25.028a8.03,8.03,0,0,0-.249-2.116,2.5,2.5,0,0,0-.916-1.391,3.235,3.235,0,0,0-1.925-.488A3.345,3.345,0,0,0,69.377,21.522ZM57.323,38.46a4.118,4.118,0,0,1-1.462-2.175,10.649,10.649,0,0,1-.4-3.031V25.6a10.68,10.68,0,0,1,.416-3.137,3.92,3.92,0,0,1,1.486-2.116,5.054,5.054,0,0,1,2.971-.761,4.816,4.816,0,0,1,2.722.666,3.651,3.651,0,0,1,1.415,1.89,8.85,8.85,0,0,1,.428,2.912v1.165H63.183V25.1a10.081,10.081,0,0,0-.2-2.164,2.413,2.413,0,0,0-.82-1.4,2.823,2.823,0,0,0-1.807-.5,3.049,3.049,0,0,0-1.961.535,2.645,2.645,0,0,0-.88,1.509,10.145,10.145,0,0,0-.226,2.258v8.2a8.7,8.7,0,0,0,.275,2.377,2.539,2.539,0,0,0,.939,1.426,3.154,3.154,0,0,0,1.854.474,2.72,2.72,0,0,0,1.819-.522,2.582,2.582,0,0,0,.808-1.462,10.6,10.6,0,0,0,.2-2.2v-1.26H64.9v1.141A10.28,10.28,0,0,1,64.5,36.5a3.836,3.836,0,0,1-1.379,2.033,4.594,4.594,0,0,1-2.794.737A4.869,4.869,0,0,1,57.323,38.46Zm43.826.571,4.065-19.256h1.9L111.2,39.029l-1.783,0-.95-5.16h-4.588l-.974,5.16h-1.76Zm5.04-16.856-2.044,10.389h4.089l-2.045-10.389h0ZM94.444,39.031H92.637V19.775H97.25a5.04,5.04,0,0,1,2.733.642A3.482,3.482,0,0,1,101.4,22.2a7.887,7.887,0,0,1,.417,2.687,7.046,7.046,0,0,1-.439,2.508,3.874,3.874,0,0,1-1.451,1.842,4.646,4.646,0,0,1-2.651.689H94.445v9.105Zm0-10.461h2.306a4.44,4.44,0,0,0,1.889-.345A2.119,2.119,0,0,0,99.7,27.073a5.907,5.907,0,0,0,.332-2.187,7.307,7.307,0,0,0-.285-2.294,1.864,1.864,0,0,0-.987-1.141,4.908,4.908,0,0,0-1.985-.32H94.445ZM88.881,39.031,88.5,23.7,84.817,39.031H83.652L80.014,23.72l-.38,15.311h-1.5l.476-19.256h1.805l3.8,16.712L88.1,19.775H89.9l.475,19.256Zm38.18,0v-6.4L122.71,19.775h1.759l3.47,10.7,3.329-10.7h1.782L128.82,32.634v6.4Zm-6.751,0-6.158-15.119V39.03h-1.569V19.775h1.307l6.134,14.953V19.775h1.569V39.03ZM21.892,16.967,8.484,30.374,0,21.892,21.891,0,43.783,21.892,35.3,30.374Z" transform="translate(14 18)" fill="#b6b9bd"/>
    </g>
    <g id="logo_3" data-name="logo 3" transform="translate(383)">
      <path id="Clip-3" data-name="Clip" d="M0,0H162V100H0Z" fill="none"/>
      <path id="Combined_Shape-3" data-name="Combined Shape" d="M17.988,60.232a3.63,3.63,0,0,1-1.4-1.523,5.46,5.46,0,0,1,0-4.532,3.663,3.663,0,0,1,1.4-1.535,4.139,4.139,0,0,1,2.184-.553,3.921,3.921,0,0,1,2.478.751,3.274,3.274,0,0,1,1.206,2.106H22.164a1.807,1.807,0,0,0-.666-1.074,2.165,2.165,0,0,0-1.35-.391,2.248,2.248,0,0,0-1.824.792,3.9,3.9,0,0,0,0,4.338,2.255,2.255,0,0,0,1.824.786,2.268,2.268,0,0,0,1.35-.364,1.689,1.689,0,0,0,.666-1.015h1.692a3.162,3.162,0,0,1-1.206,2.028,3.98,3.98,0,0,1-2.478.733A4.179,4.179,0,0,1,17.988,60.232Zm11.237-.006A3.931,3.931,0,0,1,27.75,58.7a5.061,5.061,0,0,1,0-4.524,3.931,3.931,0,0,1,1.476-1.53,4.659,4.659,0,0,1,4.4,0,3.869,3.869,0,0,1,1.476,1.53,5.107,5.107,0,0,1,0,4.524,3.869,3.869,0,0,1-1.476,1.53,4.659,4.659,0,0,1-4.4,0Zm.283-5.964a3.637,3.637,0,0,0,0,4.344,2.716,2.716,0,0,0,3.834,0,3.662,3.662,0,0,0,0-4.344,2.716,2.716,0,0,0-3.834,0Zm32.363,6.374H60.264l3.071-8.4h1.729l3.072,8.4H66.5l-.671-1.945H62.556l-.684,1.945h0Zm1.1-3.145h2.436L64.188,54ZM1.608,60.635H0l3.073-8.4H4.8l3.072,8.4H6.241l-.671-1.945H2.293l-.684,1.945h0Zm1.1-3.145H5.148L3.924,54Zm50.963,3.144H52.14v-8.4h3.108a3.666,3.666,0,0,1,1.668.336,2.264,2.264,0,0,1,.985.925,2.812,2.812,0,0,1,.012,2.6,2.294,2.294,0,0,1-.972.935,3.59,3.59,0,0,1-1.692.355H53.675v3.251h0Zm0-4.5h1.477a1.6,1.6,0,0,0,1.157-.354,1.312,1.312,0,0,0,.355-.967,1.327,1.327,0,0,0-.355-.977,1.6,1.6,0,0,0-1.157-.355H53.675Zm-6.983,4.5v-5.8l-2.339,4.6H43.141l-2.341-4.6v5.8H39.264v-8.4h1.823l2.677,5.328,2.64-5.328h1.823v8.4Zm37.908,0V57.645l-2.82-5.412h1.74l1.858,3.876,1.85-3.876h1.716l-2.808,5.412v2.988Zm-7.621,0-3.948-5.9v5.9H71.5v-8.4h1.535l3.948,5.916V52.233h1.536v8.4ZM58.951,43.443H15.508V0L32.165,16.657V0L75.608,43.443Z" transform="translate(37 20)" fill="#b6b9bd"/>
    </g>
    <g id="logo_4" data-name="logo 4" transform="translate(573)">
      <path id="Clip-4" data-name="Clip" d="M0,0H162V100H0Z" fill="none"/>
      <path id="Combined_Shape-4" data-name="Combined Shape" d="M71.847,39.223H49.2L37.879,19.612,49.2,0H71.847L83.171,19.612,71.847,39.223h0ZM50.235,19.612l5.146,8.911H65.669l5.146-8.911L65.669,10.7H55.382ZM109.7,27.668a3.663,3.663,0,0,1-1.25-.757,3.47,3.47,0,0,1-.918-1.217,4.121,4.121,0,0,1-.346-1.767V15.3a4.164,4.164,0,0,1,.346-1.744,3.676,3.676,0,0,1,.918-1.263,3.909,3.909,0,0,1,1.25-.734,4.082,4.082,0,0,1,2.824,0,4.193,4.193,0,0,1,1.273.734,3.831,3.831,0,0,1,.895,1.263,4.164,4.164,0,0,1,.346,1.744v.827H112.7V15.3a1.555,1.555,0,0,0-.47-1.251,1.742,1.742,0,0,0-2.227,0,1.556,1.556,0,0,0-.472,1.251v8.631A1.556,1.556,0,0,0,110,25.178a1.745,1.745,0,0,0,2.227,0,1.555,1.555,0,0,0,.47-1.251V20.852h-1.859V18.785h4.2v5.143a4.121,4.121,0,0,1-.346,1.767,3.607,3.607,0,0,1-.895,1.217,3.916,3.916,0,0,1-1.273.757,4.055,4.055,0,0,1-2.824,0Zm10.008,0a3.669,3.669,0,0,1-1.25-.757,3.483,3.483,0,0,1-.918-1.216,4.141,4.141,0,0,1-.346-1.768V15.3a4.175,4.175,0,0,1,.346-1.744,3.67,3.67,0,0,1,.918-1.263,3.9,3.9,0,0,1,1.25-.734,4.082,4.082,0,0,1,2.824,0,4.225,4.225,0,0,1,1.274.734,3.846,3.846,0,0,1,.894,1.263,4.177,4.177,0,0,1,.346,1.744v8.631a4.144,4.144,0,0,1-.346,1.768,3.646,3.646,0,0,1-.894,1.216,3.945,3.945,0,0,1-1.274.757,4.069,4.069,0,0,1-2.824,0Zm.3-13.622a1.562,1.562,0,0,0-.472,1.251v8.631a1.56,1.56,0,0,0,.472,1.251,1.743,1.743,0,0,0,2.226,0,1.562,1.562,0,0,0,.471-1.251V15.3a1.563,1.563,0,0,0-.471-1.251,1.743,1.743,0,0,0-2.226,0ZM99.7,27.668a3.669,3.669,0,0,1-1.25-.757,3.494,3.494,0,0,1-.918-1.216,4.141,4.141,0,0,1-.346-1.768V15.3a4.175,4.175,0,0,1,.346-1.744,3.681,3.681,0,0,1,.918-1.263,3.913,3.913,0,0,1,1.25-.734,4.082,4.082,0,0,1,2.824,0,4.214,4.214,0,0,1,1.274.734,3.846,3.846,0,0,1,.894,1.263,4.163,4.163,0,0,1,.346,1.744v8.631a4.13,4.13,0,0,1-.346,1.768,3.622,3.622,0,0,1-.894,1.216,3.935,3.935,0,0,1-1.274.757,4.069,4.069,0,0,1-2.824,0Zm.3-13.622a1.562,1.562,0,0,0-.472,1.251v8.631A1.56,1.56,0,0,0,100,25.178a1.743,1.743,0,0,0,2.226,0,1.562,1.562,0,0,0,.471-1.251V15.3a1.563,1.563,0,0,0-.471-1.251,1.743,1.743,0,0,0-2.226,0ZM88.6,27.784V11.441h2.342v14h4.638v2.341Zm-60.16,0V13.644H25.73v-2.2h7.76v2.2H30.781v14.14Zm-5.3,0L21.1,22.275l-2.02,5.509H16.6L19.9,19.221l-3.053-7.78h2.479L21.1,16.284l1.789-4.843h2.48l-3.123,7.78,3.375,8.563Zm-14.117,0V11.44H16v2.2H11.363v4.8H15.4v2.2H11.363v4.8H16v2.341Zm-6.313,0V13.644H0v-2.2H7.759v2.2H5.05V27.783Z" transform="translate(18 30)" fill="#b6b9bd"/>
    </g>
    <g id="logo_5" data-name="logo 5" transform="translate(765)">
      <path id="Clip-5" data-name="Clip" d="M0,0H162V100H0Z" fill="none"/>
      <path id="Combined_Shape-5" data-name="Combined Shape" d="M68.885,34.311a1.677,1.677,0,0,1-.636-.7,2.294,2.294,0,0,1-.228-1.048,2.258,2.258,0,0,1,.233-1.047,1.752,1.752,0,0,1,.661-.712,1.947,1.947,0,0,1,1.016-.256,1.845,1.845,0,0,1,1.107.319,1.473,1.473,0,0,1,.574.887H70.95a.853.853,0,0,0-.349-.487,1.155,1.155,0,0,0-.669-.178,1.213,1.213,0,0,0-.958.393,1.862,1.862,0,0,0-.005,2.164,1.156,1.156,0,0,0,.913.388,1.1,1.1,0,0,0,.867-.327,1.477,1.477,0,0,0,.34-.869H70.036v-.453h1.644v2.1h-.537l-.049-.571a1.408,1.408,0,0,1-.488.471,1.546,1.546,0,0,1-.764.167A1.794,1.794,0,0,1,68.885,34.311Zm-40.13-.005a1.791,1.791,0,0,1-.676-.7,2.364,2.364,0,0,1,0-2.088,1.78,1.78,0,0,1,.676-.706,2.125,2.125,0,0,1,2.014,0,1.761,1.761,0,0,1,.673.706,2.372,2.372,0,0,1,0,2.088,1.766,1.766,0,0,1-.673.7,2.112,2.112,0,0,1-2.014,0Zm.309-3.049a1.193,1.193,0,0,0-.462.509,2.015,2.015,0,0,0,0,1.583,1.2,1.2,0,0,0,.462.509,1.372,1.372,0,0,0,.7.177,1.347,1.347,0,0,0,.695-.177,1.218,1.218,0,0,0,.463-.509,1.965,1.965,0,0,0,0-1.583,1.212,1.212,0,0,0-.463-.509,1.328,1.328,0,0,0-.695-.178A1.355,1.355,0,0,0,29.064,31.256Zm-5.443,3.051a1.68,1.68,0,0,1-.645-.7,2.534,2.534,0,0,1,0-2.092,1.689,1.689,0,0,1,.645-.706,1.873,1.873,0,0,1,.993-.255,1.776,1.776,0,0,1,1.113.331,1.472,1.472,0,0,1,.548.93h-.653a.921.921,0,0,0-.333-.535,1.066,1.066,0,0,0-.681-.2,1.14,1.14,0,0,0-.918.4,1.911,1.911,0,0,0,0,2.166,1.149,1.149,0,0,0,.918.393,1.114,1.114,0,0,0,.681-.188.871.871,0,0,0,.333-.515h.653a1.43,1.43,0,0,1-.548.9,1.792,1.792,0,0,1-1.113.328A1.889,1.889,0,0,1,23.621,34.307Zm-11.649.09a1.231,1.231,0,0,1-.531-.5,1.7,1.7,0,0,1-.2-.859V30.619h.587v2.425a1,1,0,0,0,.244.746,1.022,1.022,0,0,0,1.312,0,1,1,0,0,0,.243-.746V30.619h.587v2.419a1.645,1.645,0,0,1-.2.859,1.273,1.273,0,0,1-.545.5,1.8,1.8,0,0,1-1.5,0Zm-5.332-.092a1.783,1.783,0,0,1-.675-.7,2.364,2.364,0,0,1,0-2.088,1.789,1.789,0,0,1,.675-.706,1.952,1.952,0,0,1,1.008-.254,1.951,1.951,0,0,1,1.007.254,1.761,1.761,0,0,1,.673.706,2.388,2.388,0,0,1,0,2.088,1.778,1.778,0,0,1-.673.7,1.945,1.945,0,0,1-1.007.256A1.949,1.949,0,0,1,6.639,34.305Zm.31-3.049a1.177,1.177,0,0,0-.462.509,2.015,2.015,0,0,0,0,1.583,1.182,1.182,0,0,0,.462.509,1.372,1.372,0,0,0,.7.177,1.35,1.35,0,0,0,.695-.177,1.218,1.218,0,0,0,.463-.509,1.975,1.975,0,0,0,0-1.583,1.212,1.212,0,0,0-.463-.509,1.33,1.33,0,0,0-.695-.178A1.35,1.35,0,0,0,6.949,31.256ZM101.2,34.5h-.586V30.62h1.335a1.64,1.64,0,0,1,.756.154,1.026,1.026,0,0,1,.439.419,1.187,1.187,0,0,1,.145.585,1.173,1.173,0,0,1-.191.652,1.061,1.061,0,0,1-.6.42l.825,1.643-.681,0-.752-1.562H101.2V34.5h0Zm0-2.006h.715a.774.774,0,0,0,.585-.194.7.7,0,0,0,.185-.5.683.683,0,0,0-.184-.5.811.811,0,0,0-.592-.185H101.2ZM16.608,34.5h-.586V30.62h1.335a1.64,1.64,0,0,1,.756.154,1.018,1.018,0,0,1,.44.419,1.234,1.234,0,0,1-.047,1.237,1.065,1.065,0,0,1-.595.42l.824,1.643-.68,0L17.3,32.933h-.693V34.5h0Zm0-2.006h.715a.783.783,0,0,0,.584-.194.7.7,0,0,0,.185-.5.683.683,0,0,0-.183-.5.813.813,0,0,0-.593-.185h-.709Zm49.226,1.058H64.252l-.332.947H63.3l1.428-3.875h.642l1.417,3.874-.619,0Zm-1.417-.466h1.252l-.626-1.766ZM45.4,33.548H43.818l-.331.947h-.62l1.427-3.875h.643l1.418,3.874-.62,0Zm-1.417-.466h1.251l-.625-1.766ZM39.815,34.5h-.586V30.62h1.357a1.627,1.627,0,0,1,.752.151,1.022,1.022,0,0,1,.445.416,1.19,1.19,0,0,1,.147.595,1.215,1.215,0,0,1-.14.579,1,1,0,0,1-.44.418,1.688,1.688,0,0,1-.764.155h-.77v1.562h0Zm0-2.043h.743a.821.821,0,0,0,.595-.18.673.673,0,0,0,.18-.491.685.685,0,0,0-.18-.5.818.818,0,0,0-.595-.18h-.743Zm65.218,2.042V30.62H107.5V31.1h-1.877V32.3h1.711v.464h-1.711v1.251H107.5v.477Zm-8.631,0V30.62h2.464V31.1H96.99V32.3H98.7v.464H96.99v1.251h1.877v.477Zm-2.423,0V32.761H92.1v1.733h-.588V30.62H92.1v1.66h1.877V30.62h.587v3.875Zm-9.125,0V30.62H87.32V31.1H85.442V32.3h1.712v.464H85.442v1.251H87.32v.477Zm-2.424,0-1.943-2.918v2.918H79.9V30.62h.587l1.943,2.917V30.62h.587v3.875Zm-4.955,0V30.62h.588v3.875Zm-4.03,0V30.62h.587v3.41h1.761v.464Zm-12.8,0V31.1H59.5v-.476H62.37V31.1H61.23v3.4Zm-6.752,0v-1.43L52.6,30.62h.664l.913,1.87.909-1.87h.657l-1.272,2.444v1.43Zm-3.413,0-1.944-2.918v2.918h-.586V30.62h.586l1.944,2.917V30.62h.588v3.875Zm-13.673,0V31.632l-1.185,2.308h-.454l-1.191-2.3v2.857h-.587V30.62h.693L35.393,33.2,36.7,30.62h.691v3.875Zm-34.084,0v-1.43L1.436,30.62H2.1l.914,1.87.909-1.87h.657L3.307,33.064v1.43Zm1.22-8.607a5.06,5.06,0,0,1-1.953-1.013A5.584,5.584,0,0,1,.56,23.013,6.6,6.6,0,0,1,0,20.1V5.93A6.279,6.279,0,0,1,.433,3.579,5.555,5.555,0,0,1,1.663,1.7,5.715,5.715,0,0,1,3.561.453,6.351,6.351,0,0,1,6,0a5.593,5.593,0,0,1,4.231,1.7A6.05,6.05,0,0,1,11.479,3.67a6.649,6.649,0,0,1,.453,2.477V7.593H8.243V6.363a2.989,2.989,0,0,0-.615-1.88,2,2,0,0,0-1.663-.795,1.877,1.877,0,0,0-1.826.849A4.557,4.557,0,0,0,3.687,6.69V19.85a3.4,3.4,0,0,0,.489,1.88,1.922,1.922,0,0,0,1.753.759,2.666,2.666,0,0,0,.777-.127,2.315,2.315,0,0,0,.779-.415,2.2,2.2,0,0,0,.542-.8,3.205,3.205,0,0,0,.217-1.264V18.619h3.688V20.21a5.726,5.726,0,0,1-.453,2.26,6.245,6.245,0,0,1-1.247,1.9,6.035,6.035,0,0,1-1.863,1.32,5.439,5.439,0,0,1-2.3.488A8.294,8.294,0,0,1,3.941,25.888Zm15.094-.109a5.773,5.773,0,0,1-1.97-1.193,5.5,5.5,0,0,1-1.446-1.916,6.514,6.514,0,0,1-.543-2.785V6.291a6.575,6.575,0,0,1,.543-2.748,5.788,5.788,0,0,1,1.446-1.988A6.118,6.118,0,0,1,19.035.4a6.413,6.413,0,0,1,4.447,0,6.586,6.586,0,0,1,2.007,1.157A6.06,6.06,0,0,1,26.9,3.543a6.589,6.589,0,0,1,.543,2.748V19.885a6.528,6.528,0,0,1-.543,2.785,5.75,5.75,0,0,1-1.409,1.916,6.192,6.192,0,0,1-2.007,1.193,6.426,6.426,0,0,1-4.447,0Zm81.149.18V15.076L95.124.217h3.9l2.965,10.231h.072L105.03.217h3.9l-5.062,14.859V25.959Zm-10.592,0L83.952,10.485h-.073V25.959H80.192V.217h3.543L89.3,15.728h.072V.217h3.688V25.959Zm-15.113,0L73.4,20.428H68.369l-1.086,5.531H63.6L69.346.217h3.072l5.748,25.742Zm-22.958,0V.217h5.531a8.244,8.244,0,0,1,2.677.4,5.155,5.155,0,0,1,2.1,1.41,5.5,5.5,0,0,1,1.3,2.368,14.766,14.766,0,0,1,.361,3.67,18.368,18.368,0,0,1-.2,2.929,6.1,6.1,0,0,1-.85,2.241A5.366,5.366,0,0,1,60.414,15.2a6.83,6.83,0,0,1-3.326.706H55.209V25.959Zm-7.521,0V10.3h-.072l-3.65,11.064H38.433L34.816,10.3h-.072V25.959H31.055V.217H34.6l4.737,13.631h.072L44.108.217h3.578V25.959Z" transform="translate(27 33)" fill="#b6b9bd"/>
    </g>
  </g>
</svg>
